<svg width="200" height="45" viewBox="0 0 200 45" fill="none" xmlns="http://www.w3.org/2000/svg">
<path d="M0 29.6668H9.85437C9.85437 33.0733 11.8498 35.0716 16.248 35.0716C20.2958 35.0716 21.9954 33.4265 21.9954 31.1935C21.9954 28.1379 18.4755 27.1399 14.2525 26.0234C8.15244 24.4398 0.762229 22.0313 0.762229 13.3362C0.762229 6.28631 6.04095 1 15.8384 1C25.6359 1 30.8555 6.1701 30.8555 14.569H21.1172C21.1172 11.8073 19.24 9.92748 15.3697 9.92748C12.1433 9.92748 10.6189 11.4541 10.6189 13.2178C10.6189 15.6855 13.7269 16.565 17.8339 17.6245C23.9932 19.2104 31.8521 21.5596 31.8521 30.7833C31.8521 38.4189 26.2798 44.0014 16.248 44.0014C6.21615 44.0014 0 38.1249 0 29.6668Z" fill="#0A090F"/>
<path d="M38.5938 1H47.7451V9.40113H38.5938V1ZM38.5938 14.0996H47.7451V44.0583H38.5938V14.0996Z" fill="#0A090F"/>
<path d="M54.0234 28.0367C54.0234 18.756 60.7697 12 70.5649 12C79.1292 12 85.2884 17.4048 86.7537 24.7464H77.6616C76.4306 21.9278 73.9665 20.2234 70.6809 20.2234C66.3988 20.2234 63.2907 23.3359 63.2907 27.9774C63.2907 32.6189 66.3988 35.6129 70.7993 35.6129C73.8504 35.6129 76.2554 34.0863 77.6616 31.09H86.6946C85.1701 38.4908 79.1269 43.8363 70.5057 43.8363C60.7674 43.8363 54.0234 37.0803 54.0234 28.0344V28.0367Z" fill="#0A090F"/>
<path d="M92.9102 1H102.061V9.40113H92.9102V1ZM92.9102 14.0996H102.061V44.0583H92.9102V14.0996Z" fill="#0A090F"/>
<path d="M111.738 1H113.615V44.0583H111.738V1Z" fill="#0A090F"/>
<path d="M115.715 28.9794C115.715 20.4028 122.108 14 130.438 14C139.471 14 145.631 20.1681 145.631 28.8039V29.6265H117.592C117.885 36.9704 123.339 42.1974 130.791 42.1974C135.954 42.1974 140.293 39.6135 142.463 35.7354H144.459C141.879 40.7278 136.891 44.0773 130.791 44.0773C122.111 44.0773 115.715 37.6745 115.715 28.9794ZM143.813 27.8036C143.403 20.9314 138.24 15.8798 130.438 15.8798C123.517 15.8798 118.179 20.8152 117.651 27.8036H143.813Z" fill="#0A090F"/>
<path d="M168.517 39.1692C169.475 38.0322 170.248 36.7357 170.799 35.3571C171.354 33.9626 171.527 32.452 171.609 30.964C171.716 29.0113 171.627 27.0563 171.627 25.1035V24.8666C171.627 18.2883 167.111 14 160.13 14C154.089 14 149.454 17.1125 148.28 22.4581H150.216C151.213 18.5822 154.674 15.8798 160.071 15.8798C166.23 15.8798 169.75 19.4048 169.75 25.2197V27.5097H157.843C151.038 27.5097 147.461 31.0347 147.461 35.7331C147.461 41.0194 151.509 44.075 157.609 44.075C161.24 44.075 164.919 42.7352 167.554 40.2014C167.893 39.8756 168.216 39.5292 168.519 39.1692H168.517ZM149.334 35.7331C149.334 31.9734 151.914 29.3303 157.839 29.3303H169.745V31.2694C169.745 37.0843 164.701 42.1952 157.602 42.1952C152.323 42.1952 149.331 39.7275 149.331 35.7331H149.334Z" fill="#0A090F"/>
<path d="M188.033 15C184.25 15 180.623 16.677 177.988 19.3658C176.195 21.1955 175.16 23.4148 174.684 25.9326C174.243 28.2727 174.263 30.6721 174.288 33.0555C174.325 36.8425 174.361 40.6318 174.4 44.4188C175.021 44.4188 175.64 44.421 176.261 44.4233C176.243 41.5819 176.222 38.7428 176.204 35.9014C176.177 31.7088 175.647 26.7392 177.715 22.9317C179.155 20.2818 181.61 18.2766 184.493 17.3993C185.64 17.0507 186.837 16.8798 188.033 16.8798C194.193 16.8798 198.122 20.8149 198.122 28.5689V44.4302H199.999V28.218C199.999 19.8169 195.189 15 188.033 15Z" fill="#0A090F"/>
</svg>
