<svg width="200" height="45" viewBox="0 0 200 45" fill="none" xmlns="http://www.w3.org/2000/svg">
<path d="M0 29.6668H9.85437C9.85437 33.0733 11.8498 35.0716 16.248 35.0716C20.2958 35.0716 21.9954 33.4265 21.9954 31.1935C21.9954 28.1379 18.4755 27.1399 14.2525 26.0234C8.15244 24.4398 0.762229 22.0313 0.762229 13.3362C0.762229 6.28631 6.04095 1 15.8384 1C25.6359 1 30.8555 6.1701 30.8555 14.569H21.1172C21.1172 11.8073 19.24 9.92748 15.3697 9.92748C12.1433 9.92748 10.6189 11.4541 10.6189 13.2178C10.6189 15.6855 13.7269 16.565 17.8339 17.6245C23.9932 19.2104 31.8521 21.5596 31.8521 30.7833C31.8521 38.4189 26.2798 44.0014 16.248 44.0014C6.21615 44.0014 0 38.1249 0 29.6668Z" fill="white"/>
<path d="M38.5957 1H47.747V9.40113H38.5957V1ZM38.5957 14.0996H47.747V44.0583H38.5957V14.0996Z" fill="white"/>
<path d="M54.0215 28.0367C54.0215 18.756 60.7678 12 70.563 12C79.1273 12 85.2865 17.4048 86.7518 24.7464H77.6597C76.4287 21.9278 73.9646 20.2234 70.679 20.2234C66.3969 20.2234 63.2888 23.3359 63.2888 27.9774C63.2888 32.6189 66.3969 35.6129 70.7974 35.6129C73.8485 35.6129 76.2535 34.0863 77.6597 31.09H86.6927C85.1682 38.4908 79.125 43.8363 70.5038 43.8363C60.7655 43.8363 54.0215 37.0803 54.0215 28.0344V28.0367Z" fill="white"/>
<path d="M92.9121 1H102.063V9.40113H92.9121V1ZM92.9121 14.0996H102.063V44.0583H92.9121V14.0996Z" fill="white"/>
<path d="M111.74 1H113.617V44.0583H111.74V1Z" fill="white"/>
<path d="M115.715 28.9794C115.715 20.4028 122.108 14 130.438 14C139.471 14 145.631 20.1681 145.631 28.8039V29.6265H117.592C117.885 36.9704 123.339 42.1974 130.791 42.1974C135.954 42.1974 140.293 39.6135 142.463 35.7354H144.459C141.879 40.7278 136.891 44.0773 130.791 44.0773C122.111 44.0773 115.715 37.6745 115.715 28.9794ZM143.813 27.8036C143.403 20.9314 138.24 15.8798 130.438 15.8798C123.517 15.8798 118.179 20.8152 117.651 27.8036H143.813Z" fill="white"/>
<path d="M168.515 39.1692C169.473 38.0322 170.246 36.7357 170.797 35.3571C171.352 33.9626 171.525 32.452 171.607 30.964C171.714 29.0113 171.625 27.0563 171.625 25.1035V24.8666C171.625 18.2883 167.109 14 160.128 14C154.087 14 149.452 17.1125 148.278 22.4581H150.214C151.211 18.5822 154.672 15.8798 160.069 15.8798C166.228 15.8798 169.748 19.4048 169.748 25.2197V27.5097H157.841C151.036 27.5097 147.459 31.0347 147.459 35.7331C147.459 41.0194 151.507 44.075 157.607 44.075C161.238 44.075 164.917 42.7352 167.552 40.2014C167.891 39.8756 168.214 39.5292 168.517 39.1692H168.515ZM149.332 35.7331C149.332 31.9734 151.912 29.3303 157.837 29.3303H169.743V31.2694C169.743 37.0843 164.699 42.1952 157.6 42.1952C152.321 42.1952 149.329 39.7275 149.329 35.7331H149.332Z" fill="white"/>
<path d="M188.033 15C184.25 15 180.623 16.677 177.988 19.3658C176.195 21.1955 175.16 23.4148 174.684 25.9326C174.243 28.2727 174.263 30.6721 174.288 33.0555C174.325 36.8425 174.361 40.6318 174.4 44.4188C175.021 44.4188 175.64 44.421 176.261 44.4233C176.243 41.5819 176.222 38.7428 176.204 35.9014C176.177 31.7088 175.647 26.7392 177.715 22.9317C179.155 20.2818 181.61 18.2766 184.493 17.3993C185.64 17.0507 186.837 16.8798 188.033 16.8798C194.193 16.8798 198.122 20.8149 198.122 28.5689V44.4302H199.999V28.218C199.999 19.8169 195.189 15 188.033 15Z" fill="white"/>
</svg>
